TITLE ""
FILE "DISC2Track19.mp3" MP3
  TRACK 01 AUDIO
    TITLE "DISC2Track19_01"
    INDEX 01 00:00:00
  TRACK 02 AUDIO
    TITLE "DISC2Track19_02"
    INDEX 01 00:02:68
  TRACK 03 AUDIO
    TITLE "DISC2Track19_03"
    INDEX 01 00:03:15
  TRACK 04 AUDIO
    TITLE "DISC2Track19_04"
    INDEX 01 00:05:37
  TRACK 05 AUDIO
    TITLE "DISC2Track19_05"
    INDEX 01 00:07:61
  TRACK 06 AUDIO
    TITLE "DISC2Track19_06"
    INDEX 01 00:10:01
  TRACK 07 AUDIO
    TITLE "DISC2Track19_07"
    INDEX 01 00:10:26
  TRACK 08 AUDIO
    TITLE "DISC2Track19_08"
    INDEX 01 00:14:24
  TRACK 09 AUDIO
    TITLE "DISC2Track19_09"
    INDEX 01 00:17:30
  TRACK 10 AUDIO
    TITLE "DISC2Track19_10"
    INDEX 01 00:20:37
  TRACK 11 AUDIO
    TITLE "DISC2Track19_11"
    INDEX 01 00:20:62
  TRACK 12 AUDIO
    TITLE "DISC2Track19_12"
    INDEX 01 00:23:47
  TRACK 13 AUDIO
    TITLE "DISC2Track19_13"
    INDEX 01 00:26:43
  TRACK 14 AUDIO
    TITLE "DISC2Track19_14"
    INDEX 01 00:29:34
  TRACK 15 AUDIO
    TITLE "DISC2Track19_15"
    INDEX 01 00:29:53
  TRACK 16 AUDIO
    TITLE "DISC2Track19_16"
    INDEX 01 00:33:35
  TRACK 17 AUDIO
    TITLE "DISC2Track19_17"
    INDEX 01 00:36:69
  TRACK 18 AUDIO
    TITLE "DISC2Track19_18"
    INDEX 01 00:40:20
  TRACK 19 AUDIO
    TITLE "DISC2Track19_19"
    INDEX 01 00:40:45
  TRACK 20 AUDIO
    TITLE "DISC2Track19_20"
    INDEX 01 00:44:57
  TRACK 21 AUDIO
    TITLE "DISC2Track19_21"
    INDEX 01 00:47:51
  TRACK 22 AUDIO
    TITLE "DISC2Track19_22"
    INDEX 01 00:50:42
  TRACK 23 AUDIO
    TITLE "DISC2Track19_23"
    INDEX 01 00:50:71
  TRACK 24 AUDIO
    TITLE "DISC2Track19_24"
    INDEX 01 00:56:11
  TRACK 25 AUDIO
    TITLE "DISC2Track19_25"
    INDEX 01 01:00:73
  TRACK 26 AUDIO
    TITLE "DISC2Track19_26"
    INDEX 01 01:05:55
  TRACK 27 AUDIO
    TITLE "DISC2Track19_27"
    INDEX 01 01:06:03
  TRACK 28 AUDIO
    TITLE "DISC2Track19_28"
    INDEX 01 01:09:27
  TRACK 29 AUDIO
    TITLE "DISC2Track19_29"
    INDEX 01 01:12:63
  TRACK 30 AUDIO
    TITLE "DISC2Track19_30"
    INDEX 01 01:16:15
  TRACK 31 AUDIO
    TITLE "DISC2Track19_31"
    INDEX 01 01:16:39
  TRACK 32 AUDIO
    TITLE "DISC2Track19_32"
    INDEX 01 01:19:61
  TRACK 33 AUDIO
    TITLE "DISC2Track19_33"
    INDEX 01 01:22:42
  TRACK 34 AUDIO
    TITLE "DISC2Track19_34"
    INDEX 01 01:25:12
  TRACK 35 AUDIO
    TITLE "DISC2Track19_35"
    INDEX 01 01:25:36
  TRACK 36 AUDIO
    TITLE "DISC2Track19_36"
    INDEX 01 01:29:12
  TRACK 37 AUDIO
    TITLE "DISC2Track19_37"
    INDEX 01 01:33:02
  TRACK 38 AUDIO
    TITLE "DISC2Track19_38"
    INDEX 01 01:36:59
  TRACK 39 AUDIO
    TITLE "DISC2Track19_39"
    INDEX 01 01:37:06
  TRACK 40 AUDIO
    TITLE "DISC2Track19_40"
    INDEX 01 01:40:16
  TRACK 41 AUDIO
    TITLE "DISC2Track19_41"
    INDEX 01 01:43:18
  TRACK 42 AUDIO
    TITLE "DISC2Track19_42"
    INDEX 01 01:46:13
